<svg width="40" height="40" viewBox="0 0 40 40" fill="none" xmlns="http://www.w3.org/2000/svg">
<rect width="40" height="40" rx="5" fill="#EEEEEE"/>
<path d="M28.0002 17.5501C27.5902 17.5501 27.2502 17.2101 27.2502 16.8001V12.7501H23.2002C22.7902 12.7501 22.4502 12.4101 22.4502 12.0001C22.4502 11.5901 22.7902 11.2501 23.2002 11.2501H28.0002C28.4102 11.2501 28.7502 11.5901 28.7502 12.0001V16.8001C28.7502 17.2101 28.4102 17.5501 28.0002 17.5501Z" fill="#212226"/>
<path d="M19.05 22.9499L17.2 24.7999C16.81 25.1899 16.19 25.1899 15.79 24.8099C15.68 24.6999 15.57 24.5999 15.46 24.4899C14.43 23.4499 13.5 22.3599 12.67 21.2199C11.85 20.0799 11.19 18.9399 10.71 17.8099C10.24 16.6699 10 15.5799 10 14.5399C10 13.8599 10.12 13.2099 10.36 12.6099C10.6 11.9999 10.98 11.4399 11.51 10.9399C12.15 10.3099 12.85 9.99988 13.59 9.99988C13.87 9.99988 14.15 10.0599 14.4 10.1799C14.66 10.2999 14.89 10.4799 15.07 10.7399L17.39 14.0099C17.57 14.2599 17.7 14.4899 17.79 14.7099C17.88 14.9199 17.93 15.1299 17.93 15.3199C17.93 15.5599 17.86 15.7999 17.72 16.0299C17.59 16.2599 17.4 16.4999 17.16 16.7399L16.4 17.5299C16.29 17.6399 16.24 17.7699 16.24 17.9299C16.24 18.0099 16.25 18.0799 16.27 18.1599C16.3 18.2399 16.33 18.2999 16.35 18.3599C16.53 18.6899 16.84 19.1199 17.28 19.6399C17.73 20.1599 18.21 20.6899 18.73 21.2199C18.83 21.3199 18.94 21.4199 19.04 21.5199C19.44 21.9099 19.45 22.5499 19.05 22.9499Z" fill="#212226"/>
<path d="M29.9701 26.3302C29.9701 26.6102 29.9201 26.9002 29.8201 27.1802C29.7901 27.2602 29.7601 27.3402 29.7201 27.4202C29.5501 27.7802 29.3301 28.1202 29.0401 28.4402C28.5501 28.9802 28.0101 29.3702 27.4001 29.6202C27.3901 29.6202 27.3801 29.6302 27.3701 29.6302C26.7801 29.8702 26.1401 30.0002 25.4501 30.0002C24.4301 30.0002 23.3401 29.7602 22.1901 29.2702C21.0401 28.7802 19.8901 28.1202 18.7501 27.2902C18.3601 27.0002 17.9701 26.7102 17.6001 26.4002L20.8701 23.1302C21.1501 23.3402 21.4001 23.5002 21.6101 23.6102C21.6601 23.6302 21.7201 23.6602 21.7901 23.6902C21.8701 23.7202 21.9501 23.7302 22.0401 23.7302C22.2101 23.7302 22.3401 23.6702 22.4501 23.5602L23.2101 22.8102C23.4601 22.5602 23.7001 22.3702 23.9301 22.2502C24.1601 22.1102 24.3901 22.0402 24.6401 22.0402C24.8301 22.0402 25.0301 22.0802 25.2501 22.1702C25.4701 22.2602 25.7001 22.3902 25.9501 22.5602L29.2601 24.9102C29.5201 25.0902 29.7001 25.3002 29.8101 25.5502C29.9101 25.8002 29.9701 26.0502 29.9701 26.3302Z" fill="#212226"/>
</svg>
