<svg width="36" height="36" viewBox="0 0 36 36" fill="none" xmlns="http://www.w3.org/2000/svg">
<g id="vuesax/bold/arrow-square-down">
<g id="arrow-square-down">
<path id="Vector" d="M24.285 3H11.715C6.255 3 3 6.255 3 11.715V24.27C3 29.745 6.255 33 11.715 33H24.27C29.73 33 32.985 29.745 32.985 24.285V11.715C33 6.255 29.745 3 24.285 3ZM24.09 16.755L18.795 22.05C18.57 22.275 18.285 22.38 18 22.38C17.715 22.38 17.43 22.275 17.205 22.05L11.91 16.755C11.475 16.32 11.475 15.6 11.91 15.165C12.345 14.73 13.065 14.73 13.5 15.165L18 19.665L22.5 15.165C22.935 14.73 23.655 14.73 24.09 15.165C24.525 15.6 24.525 16.305 24.09 16.755Z" fill="#212226"/>
</g>
</g>
</svg>
