<svg width="80" height="80" viewBox="0 0 80 80" fill="none" xmlns="http://www.w3.org/2000/svg">
<g clip-path="url(#clip0_2032_325)">
<mask id="mask0_2032_325" style="mask-type:alpha" maskUnits="userSpaceOnUse" x="-286" y="-30" width="366" height="110">
<rect x="-286" y="-30" width="366" height="110" rx="20" fill="white"/>
</mask>
<g mask="url(#mask0_2032_325)">
<path d="M25.9015 98.7334C23.5583 101.077 19.7313 101.094 17.645 98.5199C14.1659 94.2268 11.317 89.4462 9.1944 84.3217C6.30476 77.3455 4.81748 69.8684 4.81748 62.3174C4.81748 54.7664 6.30476 47.2893 9.19441 40.3131C12.0841 33.3369 16.3195 26.9981 21.6588 21.6587C26.9982 16.3194 33.337 12.084 40.3132 9.19431C47.2894 6.30467 54.7665 4.81738 62.3175 4.81738C69.8685 4.81738 77.3456 6.30467 84.3218 9.19431C89.4463 11.317 94.2269 14.1658 98.52 17.6449C101.094 19.7313 101.077 23.5582 98.7335 25.9014L95.074 29.5608C92.7309 31.904 88.9539 31.8614 86.2893 29.8915C83.6557 27.9445 80.7887 26.3212 77.7491 25.0622C72.8567 23.0357 67.613 21.9926 62.3175 21.9926C57.022 21.9926 51.7783 23.0357 46.8859 25.0622C41.9934 27.0887 37.5481 30.059 33.8036 33.8035C30.0591 37.548 27.0888 41.9933 25.0623 46.8858C23.0358 51.7782 21.9927 57.0219 21.9927 62.3174C21.9927 67.6129 23.0358 72.8566 25.0623 77.749C26.3213 80.7886 27.9446 83.6556 29.8916 86.2892C31.8615 88.9538 31.9041 92.7308 29.5609 95.0739L25.9015 98.7334Z" fill="#EEEEEE"/>
<path d="M27.7312 96.9037C24.3775 100.257 18.8789 100.289 16.0616 96.4735C12.8729 92.1552 10.2961 87.4001 8.41684 82.3417C5.53764 74.5915 4.36361 66.3116 4.97482 58.0666C5.58602 49.8215 7.96808 41.8053 11.9586 34.5644C14.5631 29.8383 17.8129 25.5151 21.6035 21.7142C24.9526 18.3559 30.3864 19.1979 33.209 23.0094V23.0094C36.0315 26.821 35.1412 32.1507 32.0124 35.715C30.0941 37.9003 28.4123 40.2929 27.0008 42.8542C24.2022 47.9322 22.5317 53.5541 22.1031 59.3363C21.6744 65.1186 22.4978 70.9252 24.517 76.3604C25.5354 79.1019 26.8461 81.7163 28.4211 84.1605C30.9902 88.1473 31.0849 93.55 27.7312 96.9037V96.9037Z" fill="#FABE43"/>
</g>
<rect x="65" y="64" width="5" height="5" rx="2.5" fill="#212226"/>
<path d="M60.2523 56.6693C60.133 56.4584 60.4212 56.2567 60.5785 56.4409L67.8931 65.0064C67.9698 65.0961 67.9524 65.2324 67.8558 65.3001L66.0883 66.5377C65.9916 66.6054 65.8576 66.5751 65.7995 66.4724L60.2523 56.6693Z" fill="#212226"/>
</g>
<defs>
<clipPath id="clip0_2032_325">
<rect width="80" height="80" fill="white"/>
</clipPath>
</defs>
</svg>
