<svg width="40" height="40" viewBox="0 0 40 40" fill="none" xmlns="http://www.w3.org/2000/svg">
<g id="vuesax/bold/close-square">
<g id="close-square">
<path id="Vector" d="M26.983 3.3335H13.0163C6.94967 3.3335 3.33301 6.95016 3.33301 13.0168V26.9668C3.33301 33.0502 6.94967 36.6668 13.0163 36.6668H26.9663C33.033 36.6668 36.6497 33.0502 36.6497 26.9835V13.0168C36.6663 6.95016 33.0497 3.3335 26.983 3.3335ZM25.5997 23.8335C26.083 24.3168 26.083 25.1168 25.5997 25.6002C25.3497 25.8502 25.033 25.9668 24.7163 25.9668C24.3997 25.9668 24.083 25.8502 23.833 25.6002L19.9997 21.7668L16.1663 25.6002C15.9163 25.8502 15.5997 25.9668 15.283 25.9668C14.9663 25.9668 14.6497 25.8502 14.3997 25.6002C13.9163 25.1168 13.9163 24.3168 14.3997 23.8335L18.233 20.0002L14.3997 16.1668C13.9163 15.6835 13.9163 14.8835 14.3997 14.4002C14.883 13.9168 15.683 13.9168 16.1663 14.4002L19.9997 18.2335L23.833 14.4002C24.3163 13.9168 25.1163 13.9168 25.5997 14.4002C26.083 14.8835 26.083 15.6835 25.5997 16.1668L21.7663 20.0002L25.5997 23.8335Z" fill="white" fill-opacity="0.7"/>
</g>
</g>
</svg>
