<svg width="40" height="40" viewBox="0 0 40 40" fill="none" xmlns="http://www.w3.org/2000/svg">
<g id="vuesax/bold/cup">
<g id="cup">
<path id="Vector" d="M18.75 30.4167H15C13.1667 30.4167 11.6667 31.9167 11.6667 33.75V34.1667H10C9.31667 34.1667 8.75 34.7334 8.75 35.4167C8.75 36.1 9.31667 36.6667 10 36.6667H30C30.6833 36.6667 31.25 36.1 31.25 35.4167C31.25 34.7334 30.6833 34.1667 30 34.1667H28.3333V33.75C28.3333 31.9167 26.8333 30.4167 25 30.4167H21.25V26.6C20.8333 26.65 20.4167 26.6667 20 26.6667C19.5833 26.6667 19.1667 26.65 18.75 26.6V30.4167Z" fill="white"/>
<path id="Vector_2" d="M30.7998 19.4C31.8998 18.9833 32.8665 18.3 33.6331 17.5333C35.1831 15.8167 36.1998 13.7667 36.1998 11.3667C36.1998 8.96668 34.3165 7.08334 31.9165 7.08334H30.9831C29.8998 4.86668 27.6331 3.33334 24.9998 3.33334H14.9998C12.3665 3.33334 10.0998 4.86668 9.01647 7.08334H8.08314C5.68314 7.08334 3.7998 8.96668 3.7998 11.3667C3.7998 13.7667 4.81647 15.8167 6.36647 17.5333C7.13314 18.3 8.0998 18.9833 9.1998 19.4C10.9331 23.6667 15.0998 26.6667 19.9998 26.6667C24.8998 26.6667 29.0665 23.6667 30.7998 19.4ZM24.7331 14.0833L23.6998 15.35C23.5331 15.5333 23.4165 15.9 23.4331 16.15L23.5331 17.7833C23.5998 18.7833 22.8831 19.3 21.9498 18.9333L20.4331 18.3333C20.1998 18.25 19.7998 18.25 19.5665 18.3333L18.0498 18.9333C17.1165 19.3 16.3998 18.7833 16.4665 17.7833L16.5665 16.15C16.5831 15.9 16.4665 15.5333 16.2998 15.35L15.2665 14.0833C14.6165 13.3167 14.8998 12.4667 15.8665 12.2167L17.4498 11.8167C17.6998 11.75 17.9998 11.5167 18.1331 11.3L19.0165 9.93334C19.5665 9.08334 20.4331 9.08334 20.9831 9.93334L21.8665 11.3C21.9998 11.5167 22.2998 11.75 22.5498 11.8167L24.1331 12.2167C25.0998 12.4667 25.3831 13.3167 24.7331 14.0833Z" fill="white"/>
</g>
</g>
</svg>
