<svg width="24" height="24" viewBox="0 0 24 24" fill="none" xmlns="http://www.w3.org/2000/svg">
<path d="M2 9L2 15C2 20 4 22 9 22L15 22C20 22 22 20 22 15L22 9C22 4 20 2 15 2L9 2C4 2 2 4 2 9Z" stroke="#737373" stroke-width="1.5" stroke-linecap="round" stroke-linejoin="round"/>
<path d="M10.9998 2V5.76C10.9998 6.52 10.5698 7.21 9.88977 7.55L8.09977 8.44C6.99977 9 6.99976 10 6.99976 10.24L6.99976 13.77C6.99976 14.53 7.42976 15.22 8.10976 15.56L9.89976 16.45C10.5798 16.79 11.0098 17.48 11.0098 18.24V21.98" stroke="#737373" stroke-width="1.5" stroke-linecap="round" stroke-linejoin="round"/>
<path d="M17 10.34V13.67" stroke="#737373" stroke-width="1.5" stroke-linecap="round" stroke-linejoin="round"/>
<path d="M14 9.5L14 14.5" stroke="#737373" stroke-width="1.5" stroke-linecap="round" stroke-linejoin="round"/>
</svg>
