<svg width="20" height="20" viewBox="0 0 20 20" fill="none" xmlns="http://www.w3.org/2000/svg">
<g id="vuesax/bold/link">
<g id="link">
<path id="Vector" d="M10.416 12.2917H8.33268C7.99102 12.2917 7.70768 12.0083 7.70768 11.6667C7.70768 11.325 7.99102 11.0417 8.33268 11.0417H10.416C12.5993 11.0417 14.3743 9.26667 14.3743 7.08333C14.3743 4.9 12.5993 3.125 10.416 3.125H6.24935C4.06602 3.125 2.29102 4.9 2.29102 7.08333C2.29102 8 2.61602 8.89167 3.19935 9.6C3.41602 9.86667 3.38268 10.2583 3.11602 10.4833C2.84935 10.7 2.45768 10.6667 2.23268 10.4C1.46602 9.46667 1.04102 8.29167 1.04102 7.08333C1.04102 4.20833 3.37435 1.875 6.24935 1.875H10.416C13.291 1.875 15.6243 4.20833 15.6243 7.08333C15.6243 9.95833 13.291 12.2917 10.416 12.2917Z" fill="white"/>
<path id="Vector_2" d="M13.75 18.1257H9.58333C6.70833 18.1257 4.375 15.7923 4.375 12.9173C4.375 10.0423 6.70833 7.70898 9.58333 7.70898H11.6667C12.0083 7.70898 12.2917 7.99232 12.2917 8.33398C12.2917 8.67565 12.0083 8.95898 11.6667 8.95898H9.58333C7.4 8.95898 5.625 10.734 5.625 12.9173C5.625 15.1007 7.4 16.8757 9.58333 16.8757H13.75C15.9333 16.8757 17.7083 15.1007 17.7083 12.9173C17.7083 12.0007 17.3833 11.109 16.8 10.4007C16.5833 10.134 16.6167 9.74232 16.8833 9.51732C17.15 9.29232 17.5417 9.33398 17.7667 9.60065C18.5417 10.534 18.9667 11.709 18.9667 12.9173C18.9583 15.7923 16.625 18.1257 13.75 18.1257Z" fill="white"/>
</g>
</g>
</svg>
