<svg width="32" height="32" viewBox="0 0 32 32" fill="none" xmlns="http://www.w3.org/2000/svg">
<g id="vuesax/bold/more-square">
<g id="more-square">
<path id="Vector" d="M21.5865 2.66699H10.4132C5.55984 2.66699 2.6665 5.56033 2.6665 10.4137V21.5737C2.6665 26.4403 5.55984 29.3337 10.4132 29.3337H21.5732C26.4265 29.3337 29.3198 26.4403 29.3198 21.587V10.4137C29.3332 5.56033 26.4398 2.66699 21.5865 2.66699ZM10.6665 17.3337C9.91984 17.3337 9.33317 16.7337 9.33317 16.0003C9.33317 15.267 9.93317 14.667 10.6665 14.667C11.3998 14.667 11.9998 15.267 11.9998 16.0003C11.9998 16.7337 11.4132 17.3337 10.6665 17.3337ZM15.9998 17.3337C15.2532 17.3337 14.6665 16.7337 14.6665 16.0003C14.6665 15.267 15.2665 14.667 15.9998 14.667C16.7332 14.667 17.3332 15.267 17.3332 16.0003C17.3332 16.7337 16.7465 17.3337 15.9998 17.3337ZM21.3332 17.3337C20.5865 17.3337 19.9998 16.7337 19.9998 16.0003C19.9998 15.267 20.5998 14.667 21.3332 14.667C22.0665 14.667 22.6665 15.267 22.6665 16.0003C22.6665 16.7337 22.0798 17.3337 21.3332 17.3337Z" fill="#E5E181"/>
</g>
</g>
</svg>
