<svg width="20" height="20" viewBox="0 0 20 20" fill="none" xmlns="http://www.w3.org/2000/svg">
<g id="vuesax/bold/call-calling">
<g id="call-calling">
<path id="Vector" d="M14.6832 8.95829C14.3248 8.95829 14.0415 8.66663 14.0415 8.31663C14.0415 8.00829 13.7332 7.36663 13.2165 6.80829C12.7082 6.26663 12.1498 5.94996 11.6832 5.94996C11.3248 5.94996 11.0415 5.65829 11.0415 5.30829C11.0415 4.95829 11.3332 4.66663 11.6832 4.66663C12.5165 4.66663 13.3915 5.11663 14.1582 5.92496C14.8748 6.68329 15.3332 7.62496 15.3332 8.30829C15.3332 8.66663 15.0415 8.95829 14.6832 8.95829Z" fill="#737373"/>
<path id="Vector_2" d="M17.6915 8.95835C17.3331 8.95835 17.0498 8.66669 17.0498 8.31669C17.0498 5.35835 14.6415 2.95835 11.6915 2.95835C11.3331 2.95835 11.0498 2.66669 11.0498 2.31669C11.0498 1.96669 11.3331 1.66669 11.6831 1.66669C15.3498 1.66669 18.3331 4.65002 18.3331 8.31669C18.3331 8.66669 18.0415 8.95835 17.6915 8.95835Z" fill="#737373"/>
<path id="Vector_3" d="M9.20817 12.4584L7.6665 14C7.3415 14.325 6.82484 14.325 6.4915 14.0084C6.39984 13.9167 6.30817 13.8334 6.2165 13.7417C5.35817 12.875 4.58317 11.9667 3.8915 11.0167C3.20817 10.0667 2.65817 9.11669 2.25817 8.17502C1.8665 7.22502 1.6665 6.31669 1.6665 5.45002C1.6665 4.88335 1.7665 4.34169 1.9665 3.84169C2.1665 3.33335 2.48317 2.86669 2.92484 2.45002C3.45817 1.92502 4.0415 1.66669 4.65817 1.66669C4.8915 1.66669 5.12484 1.71669 5.33317 1.81669C5.54984 1.91669 5.7415 2.06669 5.8915 2.28335L7.82484 5.00835C7.97484 5.21669 8.08317 5.40835 8.15817 5.59169C8.23317 5.76669 8.27484 5.94169 8.27484 6.10002C8.27484 6.30002 8.2165 6.50002 8.09984 6.69169C7.9915 6.88335 7.83317 7.08335 7.63317 7.28335L6.99984 7.94169C6.90817 8.03335 6.8665 8.14169 6.8665 8.27502C6.8665 8.34169 6.87484 8.40002 6.8915 8.46669C6.9165 8.53335 6.9415 8.58335 6.95817 8.63335C7.10817 8.90835 7.3665 9.26669 7.73317 9.70002C8.10817 10.1334 8.50817 10.575 8.9415 11.0167C9.02484 11.1 9.1165 11.1834 9.19984 11.2667C9.53317 11.5917 9.5415 12.125 9.20817 12.4584Z" fill="#737373"/>
<path id="Vector_4" d="M18.3083 15.275C18.3083 15.5083 18.2667 15.75 18.1833 15.9833C18.1583 16.05 18.1333 16.1167 18.1 16.1833C17.9583 16.4833 17.775 16.7667 17.5333 17.0333C17.125 17.4833 16.675 17.8083 16.1667 18.0167C16.1583 18.0167 16.15 18.025 16.1417 18.025C15.65 18.225 15.1167 18.3333 14.5417 18.3333C13.6917 18.3333 12.7833 18.1333 11.825 17.725C10.8667 17.3167 9.90833 16.7667 8.95833 16.075C8.63333 15.8333 8.30833 15.5917 8 15.3333L10.725 12.6083C10.9583 12.7833 11.1667 12.9167 11.3417 13.0083C11.3833 13.025 11.4333 13.05 11.4917 13.075C11.5583 13.1 11.625 13.1083 11.7 13.1083C11.8417 13.1083 11.95 13.0583 12.0417 12.9667L12.675 12.3417C12.8833 12.1333 13.0833 11.975 13.275 11.875C13.4667 11.7583 13.6583 11.7 13.8667 11.7C14.025 11.7 14.1917 11.7333 14.375 11.8083C14.5583 11.8833 14.75 11.9917 14.9583 12.1333L17.7167 14.0917C17.9333 14.2417 18.0833 14.4167 18.175 14.625C18.2583 14.8333 18.3083 15.0417 18.3083 15.275Z" fill="#737373"/>
</g>
</g>
</svg>
