<svg width="20" height="20" viewBox="0 0 20 20" fill="none" xmlns="http://www.w3.org/2000/svg">
<g id="vuesax/bold/tick-square">
<g id="tick-square">
<path id="Vector" d="M13.4915 1.66663H6.50817C3.47484 1.66663 1.6665 3.47496 1.6665 6.50829V13.4833C1.6665 16.525 3.47484 18.3333 6.50817 18.3333H13.4832C16.5165 18.3333 18.3248 16.525 18.3248 13.4916V6.50829C18.3332 3.47496 16.5248 1.66663 13.4915 1.66663ZM13.9832 8.08329L9.25817 12.8083C9.1415 12.925 8.98317 12.9916 8.8165 12.9916C8.64984 12.9916 8.4915 12.925 8.37484 12.8083L6.0165 10.45C5.77484 10.2083 5.77484 9.80829 6.0165 9.56663C6.25817 9.32496 6.65817 9.32496 6.89984 9.56663L8.8165 11.4833L13.0998 7.19996C13.3415 6.95829 13.7415 6.95829 13.9832 7.19996C14.2248 7.44163 14.2248 7.83329 13.9832 8.08329Z" fill="#212226"/>
</g>
</g>
</svg>
