<svg width="20" height="20" viewBox="0 0 20 20" fill="none" xmlns="http://www.w3.org/2000/svg">
<g id="vuesax/bold/tick-square">
<g id="tick-square">
<path id="Vector" d="M13.4915 1.66669H6.50817C3.47484 1.66669 1.6665 3.47502 1.6665 6.50835V13.4834C1.6665 16.525 3.47484 18.3334 6.50817 18.3334H13.4832C16.5165 18.3334 18.3248 16.525 18.3248 13.4917V6.50835C18.3332 3.47502 16.5248 1.66669 13.4915 1.66669ZM13.9832 8.08335L9.25817 12.8084C9.1415 12.925 8.98317 12.9917 8.8165 12.9917C8.64984 12.9917 8.4915 12.925 8.37484 12.8084L6.0165 10.45C5.77484 10.2084 5.77484 9.80835 6.0165 9.56669C6.25817 9.32502 6.65817 9.32502 6.89984 9.56669L8.8165 11.4834L13.0998 7.20002C13.3415 6.95835 13.7415 6.95835 13.9832 7.20002C14.2248 7.44169 14.2248 7.83335 13.9832 8.08335Z" fill="#D9D9D9"/>
</g>
</g>
</svg>
